<?xml version="1.0" encoding="utf-8"?>
<!DOCTYPE svg PUBLIC "-//W3C//DTD SVG 1.1//EN" "http://www.w3.org/Graphics/SVG/1.1/DTD/svg11.dtd">
<svg version="1.1" xmlns="http://www.w3.org/2000/svg" xmlns:xlink="http://www.w3.org/1999/xlink" x="0px" y="0px"
	 width="60px" height="60px" viewBox="0 0 85.171 85.172" enable-background="new 0 0 85.171 85.172" xml:space="preserve">
<g id="purple">
</g>
<g id="blue">
</g>
<g id="green">
	<g>
		<path fill="#FFFFFF" d="M39.422,27.836c-1.516,0-2.747,1.232-2.747,2.748c0,1.519,1.229,2.748,2.747,2.748
			c3.479,0.001,6.6,1.381,8.869,3.606c2.266,2.234,3.649,5.271,3.65,8.652c0,1.516,1.231,2.747,2.748,2.747
			c1.518,0,2.747-1.231,2.747-2.747c0.001-4.908-2.033-9.371-5.293-12.571C48.886,29.816,44.374,27.836,39.422,27.836z"/>
		<path fill="#FFFFFF" d="M65.183,46.842c2.729,0,2.75-2.77,2.747-2.8c-0.013-7.352-3.061-14.025-7.951-18.825
			c-4.897-4.82-11.68-7.8-19.138-7.798c-1.519,0-2.748,1.231-2.748,2.749c0,1.517,1.229,2.747,2.748,2.747
			c5.986,0,11.374,2.377,15.287,6.22c3.903,3.841,6.299,9.101,6.309,14.934C62.435,44.103,62.412,46.842,65.183,46.842z"/>
		<path fill="#FFFFFF" d="M42.585,0C19.066,0,0,19.067,0,42.586s19.066,42.586,42.585,42.586c9.69,0,19.109-2.65,25.776-8.688
			c8.114-7.346,1.566-12.403-4.469-14.013c0.242-0.833,0.42-1.504,0.459-1.779c0.573-4.045-14.233-9.87-16.237-5.861
			c-0.559,1.112-1.306,4.431-4.713,2.399c-2.379-1.422-14.07-13.11-15.489-15.49c-2.032-3.405,1.286-4.153,2.398-4.709
			c4.01-2.004-1.815-16.813-5.86-16.238c-0.941,0.134-6.423,1.849-7.586,2.404c-2.21,1.058-5.286,6.245-3.267,12.875
			c1.522,5,4.458,12.752,13.59,21.883c9.133,9.131,16.882,12.068,21.885,13.591c6.629,2.019,11.816-1.057,12.875-3.268
			c0.103-0.216,0.247-0.58,0.412-1.037c6.288,1.512,4.667,4.51,1.501,6.726c-5.445,3.811-13.376,6.218-21.274,6.218
			c-20.765,0-37.6-16.833-37.601-37.599c0-20.766,16.836-37.601,37.601-37.601c20.767,0,37.601,16.835,37.601,37.601
			c0,7.869-1.854,12.983-4.337,17.016c-1.941,3.799-0.702,9.027,0.8,7.752c5.7-6.043,8.522-16.003,8.522-24.768
			C85.171,19.067,66.105,0,42.585,0z"/>
	</g>
</g>
<g id="orange">
</g>
<g id="black">
</g>
</svg>