<?xml version="1.0" encoding="UTF-8"?>
<svg xmlns="http://www.w3.org/2000/svg" xmlns:xlink="http://www.w3.org/1999/xlink" viewBox="0 0 30 30" width="30px" height="30px">
<g id="surface211501406">
<path style=" stroke:none;fill-rule:nonzero;fill:rgb(100%,100%,100%);fill-opacity:1;" d="M 25.15625 3.984375 C 24.828125 4 24.527344 4.09375 24.261719 4.203125 C 24.011719 4.300781 23.054688 4.710938 21.550781 5.355469 C 20.046875 6 18.054688 6.855469 15.933594 7.769531 C 11.683594 9.597656 6.902344 11.652344 4.457031 12.707031 C 4.363281 12.746094 4.042969 12.847656 3.703125 13.113281 C 3.363281 13.382812 3 13.933594 3 14.546875 C 3 15.042969 3.234375 15.535156 3.53125 15.828125 C 3.832031 16.121094 4.144531 16.265625 4.414062 16.375 C 5.390625 16.777344 8.421875 18.015625 8.992188 18.25 C 9.195312 18.867188 10.292969 22.222656 10.546875 23.042969 C 10.714844 23.585938 10.875 23.925781 11.082031 24.195312 C 11.1875 24.332031 11.308594 24.449219 11.453125 24.542969 C 11.511719 24.578125 11.574219 24.609375 11.640625 24.632812 L 11.644531 24.636719 C 11.660156 24.644531 11.671875 24.652344 11.6875 24.65625 C 11.714844 24.667969 11.734375 24.667969 11.773438 24.675781 C 11.925781 24.726562 12.078125 24.757812 12.214844 24.757812 C 12.800781 24.757812 13.160156 24.433594 13.160156 24.433594 L 13.179688 24.417969 L 16.191406 21.816406 L 19.839844 25.269531 C 19.894531 25.34375 20.371094 26 21.429688 26 C 22.058594 26 22.554688 25.683594 22.875 25.347656 C 23.195312 25.015625 23.394531 24.660156 23.480469 24.21875 L 23.480469 24.214844 C 23.558594 23.796875 26.921875 6.527344 26.921875 6.527344 L 26.917969 6.550781 C 27.015625 6.101562 27.039062 5.683594 26.929688 5.269531 C 26.824219 4.855469 26.535156 4.460938 26.179688 4.246094 C 25.828125 4.035156 25.480469 3.96875 25.152344 3.984375 Z M 24.96875 6.074219 C 24.960938 6.101562 24.96875 6.089844 24.964844 6.125 L 24.960938 6.136719 L 24.960938 6.148438 C 24.960938 6.148438 21.636719 23.195312 21.515625 23.847656 C 21.523438 23.796875 21.480469 23.894531 21.441406 23.953125 C 21.378906 23.910156 21.257812 23.859375 21.257812 23.859375 L 21.238281 23.839844 L 16.253906 19.121094 L 12.726562 22.167969 L 13.777344 17.96875 C 13.777344 17.96875 20.332031 11.183594 20.726562 10.789062 C 21.042969 10.472656 21.113281 10.359375 21.113281 10.253906 C 21.113281 10.105469 21.035156 10 20.867188 10 C 20.710938 10 20.507812 10.148438 20.398438 10.21875 C 18.964844 11.132812 12.671875 14.800781 9.851562 16.441406 C 9.402344 16.257812 6.289062 14.980469 5.234375 14.550781 C 5.242188 14.546875 5.238281 14.546875 5.25 14.546875 C 7.695312 13.492188 12.472656 11.433594 16.722656 9.609375 C 18.84375 8.695312 20.839844 7.839844 22.34375 7.195312 C 23.820312 6.558594 24.851562 6.121094 24.96875 6.074219 Z M 24.96875 6.074219 "/>
</g>
</svg>
