<?xml version="1.0" encoding="UTF-8"?>
<svg xmlns="http://www.w3.org/2000/svg" xmlns:xlink="http://www.w3.org/1999/xlink" viewBox="0 0 48 48" width="48px" height="48px">
<g id="surface211498510">
<path style=" stroke:none;fill-rule:nonzero;fill:rgb(100%,100%,100%);fill-opacity:1;" d="M 5.4375 10.957031 C 3.195312 10.957031 1.488281 13.160156 2.105469 15.328125 C 3.714844 20.976562 6.101562 26.507812 9.664062 30.859375 C 13.222656 35.207031 18.039062 38.359375 24.199219 38.984375 C 26.25 39.191406 28.015625 37.519531 28.015625 35.496094 L 28.015625 31.449219 C 28.015625 31.195312 28.191406 31.015625 28.386719 31.011719 C 28.421875 31.007812 28.453125 31.007812 28.472656 31.007812 C 29.179688 31.007812 30.632812 31.894531 31.910156 33.273438 C 33.183594 34.648438 34.3125 36.355469 34.855469 37.300781 C 35.472656 38.367188 36.617188 39.011719 37.835938 39.011719 L 42.710938 39.011719 C 45.136719 39.011719 46.761719 36.273438 45.574219 34.148438 C 43.707031 30.8125 39.988281 27.515625 38.125 25.871094 C 41.535156 22.125 43.796875 18.046875 44.796875 15.34375 C 45.550781 13.296875 43.996094 11 41.796875 11 L 38.316406 11 C 36.804688 11 35.398438 11.734375 34.820312 12.914062 C 32.113281 18.460938 29.699219 20.5 28 21.96875 L 28 14.441406 C 28 12.5625 26.441406 11.011719 24.570312 11.011719 L 18.476562 11 C 16.539062 10.996094 15.335938 13.394531 16.496094 14.949219 L 17.671875 16.523438 L 17.675781 16.527344 C 17.878906 16.792969 17.984375 17.109375 17.984375 17.441406 L 18.007812 23.71875 C 15.585938 21.164062 12.953125 15.75 12.15625 13.335938 C 11.695312 11.921875 10.359375 10.972656 8.886719 10.96875 L 8.882812 10.96875 Z M 5.4375 13.957031 L 8.878906 13.964844 C 9.089844 13.96875 9.246094 14.082031 9.308594 14.269531 C 10.292969 17.269531 12.886719 22.984375 16.171875 26.183594 C 17.023438 27.015625 18.277344 27.183594 19.246094 26.792969 C 20.21875 26.398438 21.007812 25.375 21.007812 24.175781 L 21.007812 24.171875 L 20.984375 17.4375 C 20.984375 16.457031 20.664062 15.503906 20.074219 14.722656 L 20.074219 14.71875 L 19.535156 14 L 24.566406 14.007812 C 24.828125 14.011719 25 14.179688 25 14.4375 L 25 22.042969 C 25 24.476562 28.066406 25.875 29.910156 24.285156 L 29.914062 24.285156 C 31.601562 22.824219 34.59375 20.21875 37.515625 14.230469 C 37.582031 14.089844 37.523438 13.996094 38.320312 13.996094 L 41.796875 13.996094 C 42 13.996094 42.058594 14.09375 41.984375 14.300781 C 41.132812 16.597656 38.960938 20.605469 35.742188 24.074219 C 34.75 25.144531 34.789062 26.910156 35.914062 27.902344 C 37.671875 29.457031 41.507812 33.027344 42.953125 35.609375 C 43.085938 35.847656 42.984375 36.011719 42.710938 36.011719 L 37.835938 36.011719 C 37.667969 36.011719 37.53125 35.929688 37.457031 35.800781 C 36.808594 34.671875 35.617188 32.859375 34.109375 31.230469 C 32.601562 29.605469 30.808594 28.007812 28.472656 28.007812 C 28.40625 28.007812 28.351562 28.007812 28.308594 28.007812 L 28.300781 28.007812 C 26.441406 28.0625 25.015625 29.640625 25.015625 31.445312 L 25.015625 35.492188 C 25.015625 35.804688 24.777344 36.027344 24.5 36 C 19.179688 35.460938 15.164062 32.84375 11.980469 28.957031 C 8.800781 25.070312 6.527344 19.894531 4.988281 14.503906 C 4.90625 14.203125 5.089844 13.957031 5.433594 13.957031 Z M 5.4375 13.957031 "/>
</g>
</svg>
