<?xml version="1.0" standalone="no"?>
<!DOCTYPE svg PUBLIC "-//W3C//DTD SVG 20010904//EN"
 "http://www.w3.org/TR/2001/REC-SVG-20010904/DTD/svg10.dtd">
<svg version="1.0" xmlns="http://www.w3.org/2000/svg"
 width="471.000000pt" height="530.000000pt" viewBox="0 0 471.000000 530.000000"
 preserveAspectRatio="xMidYMid meet">

<g transform="translate(0.000000,530.000000) scale(0.100000,-0.100000)"
fill="#000000" stroke="none">
<path d="M3306 4297 l-29 -13 41 -12 c51 -16 63 -31 19 -26 -175 21 -369 36
-589 45 -335 15 -984 6 -1202 -16 -120 -12 -161 -13 -167 -4 -14 23 -81 0
-120 -42 -30 -32 -44 -40 -80 -42 -38 -3 -47 -8 -71 -42 -15 -22 -31 -39 -37
-38 -5 1 -15 -5 -23 -15 -12 -15 -11 -16 5 -3 25 20 21 6 -12 -42 -60 -87
-126 -208 -202 -364 -43 -90 -80 -163 -83 -163 -21 0 216 467 273 535 15 18
15 19 -1 6 -42 -32 -196 -311 -263 -476 -34 -83 -51 -105 -80 -105 -32 0 -33
5 -18 62 23 90 19 113 -24 133 -44 21 -124 15 -238 -18 -59 -17 -80 -28 -92
-48 -25 -41 -12 -59 44 -61 l48 -1 -55 -6 -55 -6 3 -50 c7 -87 38 -103 230
-112 83 -4 122 -10 119 -17 -2 -6 -23 -26 -48 -44 -92 -69 -109 -83 -109 -94
0 -7 12 -8 32 -4 25 5 37 1 57 -18 28 -26 115 -48 411 -102 80 -15 158 -33
173 -41 16 -8 31 -13 33 -10 5 5 -113 58 -169 77 -21 6 -37 14 -34 16 5 5 97
-27 172 -61 50 -22 57 -28 42 -37 -12 -6 -56 -4 -135 7 -64 8 -137 18 -162 21
-25 3 -55 8 -67 11 -17 4 -23 1 -24 -13 -1 -14 -3 -13 -10 6 -5 15 -6 -14 -2
-75 3 -55 7 -101 8 -103 2 -2 66 -6 142 -9 99 -3 134 -2 123 6 -8 6 -10 11 -4
11 7 0 30 19 53 43 l41 42 -27 6 -28 5 33 5 c47 8 50 -10 12 -66 -24 -35 -29
-49 -21 -59 6 -8 9 -21 5 -30 -5 -13 -21 -16 -93 -14 l-86 2 80 5 80 6 -124 8
c-149 8 -241 6 -126 -4 44 -3 4 -4 -90 -2 -93 3 -188 9 -210 13 l-40 8 40 2
40 2 -38 8 c-65 12 -71 25 -77 168 -5 121 -16 157 -30 102 -4 -14 -39 -74 -78
-133 -63 -95 -102 -180 -89 -193 2 -3 23 26 45 63 46 77 101 145 102 125 0
-16 -48 -100 -70 -122 -28 -28 -84 -110 -87 -128 -10 -67 -23 -181 -28 -257
-3 -49 -10 -128 -15 -175 -5 -47 -14 -231 -20 -410 -15 -462 7 -844 56 -993
15 -45 64 -97 92 -97 7 0 12 -11 12 -24 0 -35 34 -72 87 -93 46 -17 107 -18
1183 -21 624 -1 1221 -5 1325 -8 120 -3 231 -1 300 7 64 7 267 13 485 13 422
2 462 6 517 61 18 18 33 42 33 53 0 14 9 21 29 25 62 13 101 121 121 342 11
126 16 820 6 867 -3 13 -10 111 -16 218 -11 197 -25 373 -36 443 -5 30 -23 57
-76 115 -77 85 -98 122 -98 179 l0 38 25 -30 c14 -16 48 -65 77 -108 28 -42
53 -76 55 -74 10 10 -37 110 -90 190 -33 51 -66 107 -74 126 -8 18 -16 31 -19
28 -3 -3 -7 -60 -9 -126 -3 -139 -13 -165 -66 -169 -18 -1 -35 -5 -38 -9 -4
-3 15 -3 41 -1 26 3 45 2 42 -3 -3 -5 -22 -9 -42 -10 -41 -1 -99 -16 -69 -18
10 -1 17 -9 17 -22 0 -11 -4 -18 -9 -15 -5 4 -11 1 -13 -4 -2 -6 -12 -10 -23
-10 -11 1 -37 1 -57 1 -21 0 -38 5 -38 10 0 8 24 13 58 12 7 -1 11 2 7 5 -3 3
5 12 17 19 19 11 0 12 -127 9 -97 -2 -123 -1 -75 3 109 10 20 13 -131 4 l-124
-8 85 -6 85 -5 -86 -2 c-66 -2 -89 1 -99 13 -10 11 -10 18 -1 29 9 11 5 25
-20 66 -34 56 -30 70 16 59 l30 -7 -29 -1 -28 -1 33 -37 c18 -21 42 -42 53
-46 17 -7 18 -10 6 -18 -11 -7 27 -9 123 -6 76 3 140 7 142 9 2 2 6 48 9 103
4 65 3 93 -3 80 -5 -11 -10 -15 -10 -8 -1 13 2 13 -217 -18 -105 -15 -157 -18
-170 -11 -15 8 -10 13 31 31 63 28 71 26 15 -4 -50 -27 -49 -33 2 -11 18 8 98
27 178 42 256 47 373 73 384 85 8 9 7 10 -6 6 -12 -4 -15 0 -13 18 2 21 -3 25
-41 31 -60 9 -116 -1 -267 -44 -94 -26 -130 -33 -136 -24 -6 10 -32 18 -64 21
-5 1 0 16 11 35 11 19 18 37 15 40 -3 2 -28 -4 -57 -16 -28 -11 -76 -29 -108
-40 l-56 -19 -44 21 c-49 24 -128 35 -310 46 -112 6 -131 5 -154 -11 -30 -19
-41 -12 -46 30 -3 29 -5 30 -64 37 -191 21 -582 33 -942 28 -29 0 -43 -8 -41
-23 4 -34 -2 -35 -128 -37 -71 -1 -144 -1 -163 -1 -46 2 -174 -24 -220 -45
-34 -14 -40 -14 -93 6 -75 28 -76 49 -4 80 48 22 73 24 317 32 207 7 273 12
300 25 73 33 1031 35 1105 2 20 -8 121 -17 295 -24 254 -11 267 -12 323 -38
33 -15 56 -31 52 -37 -12 -19 10 -10 140 55 78 40 147 83 176 110 27 25 54 45
60 45 7 0 -1 -11 -17 -25 -16 -14 -23 -25 -16 -25 6 0 12 -6 12 -14 0 -19 93
-139 124 -159 14 -10 52 -23 85 -31 33 -8 64 -17 70 -21 6 -3 11 -2 11 4 0 6
-33 34 -72 64 -91 67 -106 84 -81 90 10 2 79 5 153 6 154 2 203 12 226 46 17
26 36 96 28 104 -2 2 -30 5 -61 7 -78 3 -79 6 -8 13 72 7 83 27 37 71 -33 31
-128 57 -243 67 -60 5 -68 4 -88 -18 -12 -13 -28 -25 -34 -25 -7 -1 -18 -2
-26 -3 -11 -1 -13 -16 -7 -81 l6 -80 -28 0 c-20 0 -33 7 -42 24 -7 14 -18 22
-24 20 -7 -3 -32 37 -61 98 -77 163 -201 386 -263 473 -51 71 -62 80 -102 90
-34 8 -50 19 -68 45 -50 76 -92 94 -156 67z m-1 -117 c116 -6 222 -13 236 -16
21 -4 40 -31 106 -147 111 -196 154 -278 197 -375 20 -46 36 -84 36 -86 0 -2
-8 -13 -19 -25 -15 -18 -20 -19 -25 -6 -8 21 -66 55 -96 55 -19 0 -34 14 -64
58 -22 32 -50 66 -63 75 -22 17 -23 17 -23 -3 0 -11 -2 -20 -4 -20 -2 0 -50
45 -107 100 -57 55 -111 107 -120 115 -9 8 -22 15 -30 15 -9 0 -24 12 -36 28
-11 15 -55 44 -98 65 -43 22 -99 53 -124 71 -25 18 -60 38 -76 44 -17 6 -23
11 -12 11 20 1 24 21 4 21 -18 0 -67 23 -67 32 0 4 39 5 88 2 48 -2 182 -9
297 -14z m-2840 -640 c3 -5 -1 -10 -9 -10 -8 0 -18 5 -21 10 -3 6 1 10 9 10 8
0 18 -4 21 -10z m3805 0 c0 -5 -5 -10 -11 -10 -5 0 -7 5 -4 10 3 6 8 10 11 10
2 0 4 -4 4 -10z m-3463 -76 c24 -26 43 -50 43 -54 0 -4 34 -24 76 -45 41 -20
73 -39 70 -42 -2 -2 -18 3 -35 11 -42 22 -45 20 -25 -14 17 -27 17 -30 1 -48
-9 -10 -17 -23 -17 -28 0 -5 -9 -15 -19 -21 -16 -10 -37 -9 -103 4 -46 9 -86
19 -90 22 -5 4 16 36 46 71 66 77 73 103 38 131 -35 27 -57 59 -41 59 7 0 32
-21 56 -46z m2912 -328 c-8 -8 -113 -45 -117 -42 -2 2 21 13 50 25 51 19 76
26 67 17z m-39 -110 c0 -2 -7 -6 -15 -10 -8 -3 -15 -1 -15 4 0 6 7 10 15 10 8
0 15 -2 15 -4z m-2785 -46 c3 -5 1 -10 -4 -10 -6 0 -11 5 -11 10 0 6 2 10 4
10 3 0 8 -4 11 -10z m2933 -27 c1 -32 -3 -40 -25 -50 -36 -17 -44 -16 -36 3 5
13 7 13 14 2 6 -8 9 -2 9 20 0 18 4 31 9 28 5 -3 11 3 14 14 8 31 14 24 15
-17z m-2924 1 c9 -3 16 -15 16 -26 0 -28 -34 -19 -38 10 -4 24 -2 25 22 16z
m693 -10 c-3 -3 -12 -4 -19 -1 -8 3 -5 6 6 6 11 1 17 -2 13 -5z m700 0 c-3 -3
-12 -4 -19 -1 -8 3 -5 6 6 6 11 1 17 -2 13 -5z m840 0 c-3 -3 -12 -4 -19 -1
-8 3 -5 6 6 6 11 1 17 -2 13 -5z m-1330 -10 c-3 -3 -12 -4 -19 -1 -8 3 -5 6 6
6 11 1 17 -2 13 -5z m1120 0 c-3 -3 -12 -4 -19 -1 -8 3 -5 6 6 6 11 1 17 -2
13 -5z m-1984 -24 c3 -12 0 -20 -8 -20 -8 0 -11 8 -8 20 3 11 7 20 8 20 1 0 5
-9 8 -20z m1044 14 c-3 -3 -12 -4 -19 -1 -8 3 -5 6 6 6 11 1 17 -2 13 -5z
m160 0 c-3 -3 -12 -4 -19 -1 -8 3 -5 6 6 6 11 1 17 -2 13 -5z m440 0 c-3 -3
-12 -4 -19 -1 -8 3 -5 6 6 6 11 1 17 -2 13 -5z m160 0 c-3 -3 -12 -4 -19 -1
-8 3 -5 6 6 6 11 1 17 -2 13 -5z m-1304 -41 c-7 -2 -19 -2 -25 0 -7 3 -2 5 12
5 14 0 19 -2 13 -5z m1850 0 c-7 -2 -19 -2 -25 0 -7 3 -2 5 12 5 14 0 19 -2
13 -5z m-805 -19 c153 -31 213 -100 104 -117 -20 -4 -57 -11 -82 -16 -77 -17
-256 -12 -349 8 -112 26 -125 48 -53 88 20 12 62 26 92 32 30 6 64 13 75 15
47 9 141 5 213 -10z m582 4 c0 -4 -7 -8 -15 -8 -8 0 -15 4 -15 8 0 5 7 9 15 9
8 0 15 -4 15 -9z m-1190 -8 c0 -5 -9 -10 -21 -10 -11 0 -17 5 -14 10 3 6 13
10 21 10 8 0 14 -4 14 -10z m173 3 c-7 -2 -19 -2 -25 0 -7 3 -2 5 12 5 14 0
19 -2 13 -5z m630 0 c-7 -2 -19 -2 -25 0 -7 3 -2 5 12 5 14 0 19 -2 13 -5z
m182 -3 c3 -5 -3 -10 -14 -10 -12 0 -21 5 -21 10 0 6 6 10 14 10 8 0 18 -4 21
-10z m-2287 -28 c6 -18 -15 -14 -22 4 -4 10 -1 14 6 12 6 -2 14 -10 16 -16z
m3582 11 c0 -5 -4 -15 -10 -23 -11 -18 -25 -7 -17 15 6 15 27 21 27 8z m-3543
-35 c-3 -7 -5 -2 -5 12 0 14 2 19 5 13 2 -7 2 -19 0 -25z m33 13 c0 -11 -4
-23 -10 -26 -6 -4 -9 5 -8 19 3 30 18 35 18 7z m17 -3 c-3 -8 -6 -5 -6 6 -1
11 2 17 5 13 3 -3 4 -12 1 -19z m616 15 c-7 -2 -19 -2 -25 0 -7 3 -2 5 12 5
14 0 19 -2 13 -5z m2170 0 c-7 -2 -19 -2 -25 0 -7 3 -2 5 12 5 14 0 19 -2 13
-5z m-2703 -32 c0 -4 -16 -7 -35 -7 -33 0 -42 6 -30 18 7 7 65 -3 65 -11z
m143 12 c-7 -2 -21 -2 -30 0 -10 3 -4 5 12 5 17 0 24 -2 18 -5z m2965 0 c-10
-2 -26 -2 -35 0 -10 3 -2 5 17 5 19 0 27 -2 18 -5z m-2862 -25 c14 -17 15 -20
2 -9 -9 7 -22 10 -28 6 -11 -7 -14 8 -3 18 9 9 7 10 29 -15z m74 18 c0 -2 -11
-6 -25 -8 -13 -3 -22 -1 -19 3 5 9 44 13 44 5z m463 -3 c-7 -2 -19 -2 -25 0
-7 3 -2 5 12 5 14 0 19 -2 13 -5z m1670 0 c-7 -2 -19 -2 -25 0 -7 3 -2 5 12 5
14 0 19 -2 13 -5z m487 -2 c0 -4 -11 -6 -25 -3 -14 2 -25 6 -25 8 0 2 11 4 25
4 14 0 25 -4 25 -9z m55 -1 c3 -5 1 -10 -4 -10 -6 0 -11 5 -11 10 0 6 2 10 4
10 3 0 8 -4 11 -10z m-1982 -7 c-7 -2 -21 -2 -30 0 -10 3 -4 5 12 5 17 0 24
-2 18 -5z m190 0 c-7 -2 -21 -2 -30 0 -10 3 -4 5 12 5 17 0 24 -2 18 -5z m843
-2 c-3 -5 -15 -7 -26 -4 -28 7 -25 13 6 13 14 0 23 -4 20 -9z m187 2 c-7 -2
-21 -2 -30 0 -10 3 -4 5 12 5 17 0 24 -2 18 -5z m-1593 -47 c0 -2 -9 -6 -20
-9 -11 -3 -20 -1 -20 4 0 5 9 9 20 9 11 0 20 -2 20 -4z m1970 -5 c0 -5 -9 -7
-20 -4 -11 3 -20 7 -20 9 0 2 9 4 20 4 11 0 20 -4 20 -9z m-2834 -44 c-39 -39
-34 -65 12 -72 20 -3 71 -12 112 -19 41 -7 87 -13 103 -13 46 -1 31 25 -30 54
-32 15 -59 30 -61 35 -2 4 -10 4 -19 1 -11 -4 -14 -2 -9 5 4 8 0 12 -11 13
-11 0 -13 3 -5 6 16 6 232 -98 252 -122 14 -18 12 -18 -65 -12 -44 4 -144 10
-222 14 -79 3 -143 9 -143 13 0 16 70 115 87 121 27 10 27 4 -1 -24z m1114 23
c0 -5 -12 -10 -26 -10 -14 0 -23 4 -19 10 3 6 15 10 26 10 10 0 19 -4 19 -10z
m385 0 c-27 -12 -35 -12 -35 0 0 6 12 10 28 9 24 0 25 -1 7 -9z m695 0 c0 -5
-9 -9 -20 -7 -31 5 -36 17 -7 17 15 0 27 -4 27 -10z m395 0 c4 -6 -5 -10 -19
-10 -14 0 -26 5 -26 10 0 6 9 10 19 10 11 0 23 -4 26 -10z m1094 -9 c21 -21
44 -62 55 -98 l7 -23 -135 0 c-79 0 -137 4 -141 10 -3 6 -16 10 -28 10 -12 0
-28 4 -35 9 -27 17 165 109 231 110 15 1 36 -8 46 -18z m-2356 2 c-7 -2 -21
-2 -30 0 -10 3 -4 5 12 5 17 0 24 -2 18 -5z m1040 0 c-7 -2 -21 -2 -30 0 -10
3 -4 5 12 5 17 0 24 -2 18 -5z m-1660 -40 c-7 -2 -21 -2 -30 0 -10 3 -4 5 12
5 17 0 24 -2 18 -5z m2280 0 c-7 -2 -21 -2 -30 0 -10 3 -4 5 12 5 17 0 24 -2
18 -5z m-883 -29 c0 -2 -15 -4 -32 -3 -27 0 -29 2 -13 8 18 8 45 4 45 -5z
m-1132 -1 c-10 -2 -26 -2 -35 0 -10 3 -2 5 17 5 19 0 27 -2 18 -5z m630 0
c-10 -2 -26 -2 -35 0 -10 3 -2 5 17 5 19 0 27 -2 18 -5z m666 1 c27 -10 18
-21 -15 -16 -22 3 -27 7 -18 13 17 11 14 10 33 3z m454 -1 c-10 -2 -26 -2 -35
0 -10 3 -2 5 17 5 19 0 27 -2 18 -5z m-1498 -13 c0 -5 -13 -10 -30 -10 -16 0
-30 5 -30 10 0 6 14 10 30 10 17 0 30 -4 30 -10z m198 3 c-10 -2 -26 -2 -35 0
-10 3 -2 5 17 5 19 0 27 -2 18 -5z m1072 -3 c0 -5 -13 -10 -30 -10 -16 0 -30
5 -30 10 0 6 14 10 30 10 17 0 30 -4 30 -10z m-1667 -67 c-7 -2 -21 -2 -30 0
-10 3 -4 5 12 5 17 0 24 -2 18 -5z m897 -14 c0 -5 -13 -9 -30 -9 -30 0 -41 15
-17 23 17 5 47 -3 47 -14z m254 15 c26 -10 18 -24 -14 -24 -30 0 -41 14 -17
23 6 3 13 6 14 6 1 1 8 -2 17 -5z m889 -1 c-7 -2 -21 -2 -30 0 -10 3 -4 5 12
5 17 0 24 -2 18 -5z m-1763 -19 c0 -2 -15 -4 -32 -4 -23 0 -29 3 -19 9 12 8
51 4 51 -5z m220 6 c0 -5 -14 -10 -31 -10 -17 0 -28 4 -24 10 3 6 17 10 31 10
13 0 24 -4 24 -10z m215 0 c4 -6 -8 -10 -30 -10 -22 0 -34 4 -30 10 3 6 17 10
30 10 13 0 27 -4 30 -10z m640 0 c4 -6 -8 -10 -30 -10 -22 0 -34 4 -30 10 3 6
17 10 30 10 13 0 27 -4 30 -10z m210 0 c4 -6 -8 -10 -30 -10 -22 0 -34 4 -30
10 3 6 17 10 30 10 13 0 27 -4 30 -10z m215 0 c11 -7 6 -10 -20 -10 -26 0 -31
3 -20 10 8 5 17 10 20 10 3 0 12 -5 20 -10z m-2581 -71 c14 -9 14 -10 -1 -5
-45 13 -137 17 -159 7 -23 -12 -23 -12 -4 4 16 13 33 15 84 10 36 -3 72 -11
80 -16z m3777 5 c18 -14 18 -15 -5 -3 -23 11 -119 6 -159 -8 -9 -3 -14 -3 -10
2 22 24 147 31 174 9z m-2826 -34 c0 -5 -13 -10 -30 -10 -16 0 -30 5 -30 10 0
6 14 10 30 10 17 0 30 -4 30 -10z m245 0 c4 -6 -8 -10 -30 -10 -22 0 -34 4
-30 10 3 6 17 10 30 10 13 0 27 -4 30 -10z m235 0 c0 -5 -16 -10 -36 -10 -21
0 -33 4 -29 10 3 6 19 10 36 10 16 0 29 -4 29 -10z m220 0 c0 -5 -16 -10 -36
-10 -21 0 -33 4 -29 10 3 6 19 10 36 10 16 0 29 -4 29 -10z m190 0 c0 -5 -16
-10 -35 -10 -19 0 -35 5 -35 10 0 6 16 10 35 10 19 0 35 -4 35 -10z m185 0 c4
-6 -8 -10 -29 -10 -20 0 -36 5 -36 10 0 6 13 10 29 10 17 0 33 -4 36 -10z
m220 0 c4 -6 -8 -10 -29 -10 -20 0 -36 5 -36 10 0 6 13 10 29 10 17 0 33 -4
36 -10z m230 0 c4 -6 -8 -10 -29 -10 -20 0 -36 5 -36 10 0 6 13 10 29 10 17 0
33 -4 36 -10z m245 0 c0 -5 -13 -10 -30 -10 -16 0 -30 5 -30 10 0 6 14 10 30
10 17 0 30 -4 30 -10z m1087 -57 c-3 -10 -5 -4 -5 12 0 17 2 24 5 18 2 -7 2
-21 0 -30z m-4000 5 c-3 -8 -6 -5 -6 6 -1 11 2 17 5 13 3 -3 4 -12 1 -19z
m1023 -43 c0 -10 -10 -15 -30 -15 -20 0 -30 5 -30 15 0 10 10 15 30 15 20 0
30 -5 30 -15z m2010 0 c0 -11 -9 -15 -30 -13 -17 1 -30 8 -30 15 0 8 12 13 30
13 20 0 30 -5 30 -15z m-1760 -5 c0 -5 -13 -10 -30 -10 -16 0 -30 5 -30 10 0
6 14 10 30 10 17 0 30 -4 30 -10z m1510 0 c0 -5 -13 -10 -30 -10 -16 0 -30 5
-30 10 0 6 14 10 30 10 17 0 30 -4 30 -10z m-1250 -15 c0 -10 -11 -15 -35 -15
-24 0 -35 5 -35 15 0 10 11 15 35 15 24 0 35 -5 35 -15z m1000 0 c0 -10 -11
-15 -35 -15 -24 0 -35 5 -35 15 0 10 11 15 35 15 24 0 35 -5 35 -15z m1477
-32 c-3 -10 -5 -2 -5 17 0 19 2 27 5 18 2 -10 2 -26 0 -35z m-3947 27 c0 -5
-5 -10 -11 -10 -5 0 -7 5 -4 10 3 6 8 10 11 10 2 0 4 -4 4 -10z m148 -7 c-3
-14 -12 -17 -43 -15 -22 2 -50 3 -62 3 -11 0 -24 6 -27 14 -4 12 7 15 65 15
62 0 70 -2 67 -17z m60 -3 c11 -18 10 -20 -18 -20 -18 0 -30 5 -30 13 0 32 30
36 48 7z m1502 10 c0 -5 -16 -10 -35 -10 -19 0 -35 5 -35 10 0 6 16 10 35 10
19 0 35 -4 35 -10z m258 -7 c2 -9 -8 -13 -32 -13 -34 0 -44 8 -29 24 11 11 56
2 61 -11z m262 7 c0 -5 -16 -10 -35 -10 -19 0 -35 5 -35 10 0 6 16 10 35 10
19 0 35 -4 35 -10z m780 -9 c-11 -21 -30 -37 -30 -25 0 8 30 44 37 44 2 0 -1
-9 -7 -19z m855 12 c-11 -3 -23 -10 -27 -17 -6 -8 -8 -7 -8 2 0 6 -9 12 -21
12 -11 0 -18 -4 -14 -9 3 -5 1 -12 -5 -16 -5 -3 -10 1 -10 9 0 9 -7 16 -16 16
-8 0 -13 -4 -9 -9 8 -15 -15 -25 -28 -12 -14 14 -30 15 -22 1 4 -6 -7 -10 -24
-10 -29 0 -30 2 -19 20 12 18 23 20 118 19 58 -1 96 -4 85 -6z m82 -115 c-2
-13 -4 -3 -4 22 0 25 2 35 4 23 2 -13 2 -33 0 -45z m-3752 31 c94 -6 173 -14
177 -17 3 -4 18 -29 31 -56 l25 -50 -23 -12 c-34 -18 -393 -94 -442 -94 -23 0
-48 33 -39 53 2 7 5 5 5 -4 2 -36 25 -41 113 -25 137 26 272 58 282 66 4 5 -5
32 -20 61 -35 64 -37 64 -218 74 -76 4 -136 12 -136 17 0 6 16 7 38 4 20 -3
114 -10 207 -17z m3709 11 c-11 -4 -82 -13 -158 -19 -76 -6 -144 -15 -151 -21
-19 -16 -48 -87 -42 -103 5 -14 109 -41 275 -72 88 -17 112 -12 112 23 0 8 2
13 5 10 11 -11 -7 -57 -23 -60 -18 -4 -425 77 -443 88 -6 3 -8 15 -6 26 4 16
3 17 -9 7 -21 -17 -17 -1 11 46 13 24 32 46 42 49 10 4 85 12 168 17 82 5 159
11 170 13 11 2 31 4 45 4 23 1 23 0 4 -8z m-2521 -47 c-24 -2 -62 -2 -85 0
-24 2 -5 4 42 4 47 0 66 -2 43 -4z m2485 -20 c-10 -2 -26 -2 -35 0 -10 3 -2 5
17 5 19 0 27 -2 18 -5z m-3662 -12 c17 -5 37 -5 46 0 20 11 41 -12 32 -35 -4
-11 -10 -13 -18 -7 -7 6 -52 13 -102 16 -125 9 -133 10 -146 23 -9 9 7 12 73
12 46 0 98 -4 115 -9z m2292 1 c9 -7 12 -51 10 -188 l-3 -179 -570 0 -570 0
-3 179 c-2 137 1 181 10 188 17 10 1109 10 1126 0z m1124 -12 c-2 -8 3 -10 13
-6 24 9 37 -3 22 -18 -9 -10 -14 -11 -19 -2 -6 8 -12 8 -27 -1 -16 -10 -20 -9
-25 4 -7 18 12 46 28 40 6 -3 10 -10 8 -17z m188 5 c0 -18 -26 -20 -33 -2 -4
9 -8 8 -16 -3 -11 -16 -81 -24 -81 -9 0 5 15 10 33 11 21 1 14 4 -23 8 -51 6
-49 7 33 8 71 2 87 -1 87 -13z m-95 -85 c-3 -5 -13 -10 -21 -10 -8 0 -14 5
-14 10 0 6 9 10 21 10 11 0 17 -4 14 -10z m-3742 -30 c-3 -12 -8 -19 -11 -16
-5 6 5 36 12 36 2 0 2 -9 -1 -20z m3305 -29 c62 -31 157 -65 295 -106 51 -15
96 -35 108 -48 l20 -22 -25 -6 c-13 -4 -44 -3 -69 2 -52 9 -370 134 -472 184
l-70 35 78 -5 c58 -4 91 -12 135 -34z m-2648 -35 c0 -9 -313 -127 -328 -124
-27 6 40 37 158 74 58 18 116 37 130 42 28 12 40 14 40 8z m2770 -402 c22 -15
40 -27 40 -28 0 -1 -62 -2 -137 -4 -76 -1 -208 -5 -294 -8 l-156 -6 -19 30
c-18 31 -18 31 -118 35 -62 2 -24 4 99 6 110 2 268 6 350 10 163 7 174 5 235
-35z m-2395 24 c94 -1 143 -3 109 -5 -55 -4 -62 -7 -78 -34 l-18 -30 -186 6
c-260 8 -309 13 -316 32 -5 12 -3 13 6 6 9 -8 23 -5 48 8 l35 19 -40 0 c-22 0
-52 -7 -65 -16 l-25 -16 25 23 c24 21 30 21 180 15 85 -3 232 -7 325 -8z m760
-38 l-16 -30 -179 0 c-174 0 -179 1 -194 22 -9 12 -16 26 -16 30 0 5 95 8 210
8 l211 0 -16 -30z m735 0 l-21 -30 -179 0 -179 0 -16 30 -16 30 216 0 216 0
-21 -30z m-2030 0 c0 -5 -5 -10 -11 -10 -5 0 -7 5 -4 10 3 6 8 10 11 10 2 0 4
-4 4 -10z m41 -182 c37 -30 46 -32 133 -36 80 -4 93 -7 91 -21 -2 -9 -4 -17
-5 -18 -2 -2 -3 -7 -4 -13 -7 -55 -146 -158 -264 -194 l-22 -7 6 148 c6 149 8
173 19 173 4 0 24 -14 46 -32z m2909 -62 c0 -45 3 -111 6 -145 4 -37 3 -61 -3
-61 -18 0 -203 171 -203 187 0 6 22 13 49 17 27 4 60 15 73 26 13 11 19 19 14
20 -18 0 27 40 46 40 16 0 18 -9 18 -84z"/>
<path d="M2228 2855 c-71 -14 -121 -36 -100 -43 6 -2 12 -12 12 -22 0 -22 35
-44 53 -34 10 6 75 59 132 106 12 11 -17 9 -97 -7z"/>
<path d="M2387 2861 c4 -4 33 -27 63 -52 30 -25 61 -49 67 -53 16 -9 53 11 53
29 0 7 6 16 13 19 21 9 -22 34 -77 45 -68 14 -129 20 -119 12z"/>
<path d="M2345 2850 c-4 -6 3 -10 14 -10 25 0 27 6 6 13 -8 4 -17 2 -20 -3z"/>
<path d="M2365 2832 c-35 -4 -85 -48 -85 -74 0 -16 9 -18 75 -18 66 0 75 2 75
18 0 11 -9 27 -20 37 -11 10 -20 22 -20 28 0 5 18 -7 40 -27 37 -33 50 -42 50
-32 0 2 -19 19 -42 37 -32 25 -51 33 -73 31z"/>
<path d="M2239 2773 c-13 -16 -12 -17 4 -4 9 7 17 15 17 17 0 8 -8 3 -21 -13z"/>
<path d="M2416 2035 c-60 -46 -60 -65 -2 -65 26 0 47 -5 50 -12 5 -10 7 -10
12 0 3 6 12 12 20 12 19 0 18 16 -1 24 -9 3 -15 19 -15 41 0 19 -4 35 -9 35
-4 0 -29 -16 -55 -35z m42 -17 c-2 -15 -11 -24 -25 -26 -27 -4 -29 5 -6 30 22
24 35 23 31 -4z"/>
<path d="M1890 2020 c0 -5 9 -10 20 -10 15 0 20 -7 20 -25 0 -14 5 -25 10 -25
6 0 10 11 10 25 0 16 6 25 15 25 8 0 15 5 15 10 0 6 -20 10 -45 10 -25 0 -45
-4 -45 -10z"/>
<path d="M1997 2023 c-11 -10 -8 -63 3 -63 6 0 10 16 10 35 0 36 -2 40 -13 28z"/>
<path d="M2024 2004 c-9 -35 6 -46 57 -42 32 2 45 8 47 21 3 13 -3 17 -30 17
-32 -1 -32 -1 -13 -16 19 -15 19 -15 -10 -12 -19 2 -31 9 -33 21 -3 14 4 17
37 17 23 0 41 5 41 10 0 6 -20 10 -45 10 -40 0 -45 -3 -51 -26z"/>
<path d="M2147 2023 c-4 -3 -7 -19 -7 -35 0 -27 2 -28 45 -28 32 0 47 5 52 15
8 22 0 27 -34 23 l-28 -4 25 -11 c25 -12 25 -12 -7 -12 -27 -1 -33 3 -33 19 0
16 7 20 34 20 19 0 38 5 41 10 7 11 -77 14 -88 3z"/>
<path d="M2257 2024 c-4 -4 -7 -20 -7 -36 0 -27 2 -28 51 -28 l50 0 -3 33 c-3
30 -6 32 -43 35 -23 2 -44 0 -48 -4z m81 -31 c-2 -12 -14 -19 -36 -21 -27 -3
-32 0 -32 17 0 17 6 21 36 21 28 0 35 -3 32 -17z"/>
<path d="M2526 1994 c-3 -9 -6 -25 -6 -37 0 -19 1 -19 13 -5 6 9 25 18 42 20
19 2 31 9 33 21 3 14 -4 17 -36 17 -27 0 -42 -5 -46 -16z m59 -4 c4 -6 -5 -10
-20 -10 -15 0 -24 4 -20 10 3 6 12 10 20 10 8 0 17 -4 20 -10z"/>
<path d="M2615 1979 c-9 -42 2 -50 16 -11 8 24 17 32 35 32 13 0 24 -4 24 -10
0 -5 -12 -10 -27 -10 -25 0 -26 0 -8 -20 21 -23 44 -28 25 -5 -10 12 -10 15 3
15 16 0 30 24 20 34 -4 3 -23 6 -44 6 -34 0 -38 -3 -44 -31z"/>
<path d="M2720 1995 c-21 -25 -8 -50 28 -53 40 -4 62 12 62 44 0 21 -5 24 -39
24 -21 0 -44 -6 -51 -15z m73 -1 c13 -14 -7 -34 -34 -34 -27 0 -39 17 -22 33
8 9 48 9 56 1z"/>
<path d="M4173 3134 c-8 -4 -10 -27 -7 -71 2 -37 1 -69 -4 -72 -4 -3 -15 -18
-25 -33 -10 -16 -27 -29 -40 -29 -17 -1 -16 -3 8 -9 47 -12 66 -11 64 3 -3 26
1 48 9 43 4 -2 9 36 10 85 1 49 1 89 0 88 -2 0 -8 -3 -15 -5z"/>
<path d="M522 3054 c1 -44 7 -82 12 -85 5 -4 9 -18 9 -33 0 -28 11 -31 57 -16
16 5 19 8 8 9 -10 1 -24 15 -33 31 -9 17 -20 30 -25 30 -5 0 -9 30 -7 67 1 47
-2 68 -11 71 -10 3 -12 -13 -10 -74z"/>
<path d="M591 3092 c-6 -11 -11 -41 -11 -66 0 -55 22 -82 77 -92 l38 -7 -40
-13 -40 -12 40 -1 c22 -1 57 -4 78 -7 l37 -7 0 90 c0 56 -5 95 -12 106 -9 11
-35 19 -84 23 -66 6 -73 5 -83 -14z m99 -68 c0 -2 -16 -4 -35 -4 -33 0 -35 2
-25 20 10 19 12 19 35 4 14 -9 25 -18 25 -20z m70 -53 c0 -16 -30 -41 -48 -40
-12 0 -10 3 6 9 12 5 25 16 28 25 7 17 14 20 14 6z"/>
<path d="M3994 3103 c-21 -3 -35 -12 -43 -29 -12 -28 -15 -170 -3 -177 4 -3
41 -2 82 1 l75 5 -40 12 -40 11 30 8 c61 15 75 32 75 87 0 73 -12 89 -63 87
-23 0 -56 -3 -73 -5z m86 -69 c0 -15 -9 -17 -34 -8 -15 6 -15 8 1 19 20 15 33
11 33 -11z m-83 -16 c-3 -8 -6 -5 -6 6 -1 11 2 17 5 13 3 -3 4 -12 1 -19z m-4
-78 c16 -6 18 -9 5 -9 -19 -1 -48 25 -48 42 0 7 5 4 11 -6 6 -10 20 -22 32
-27z"/>
<path d="M781 3054 c0 -11 3 -14 6 -6 3 7 2 16 -1 19 -3 4 -6 -2 -5 -13z"/>
<path d="M3921 3054 c0 -11 3 -14 6 -6 3 7 2 16 -1 19 -3 4 -6 -2 -5 -13z"/>
<path d="M698 2863 c17 -2 47 -2 65 0 17 2 3 4 -33 4 -36 0 -50 -2 -32 -4z"/>
<path d="M3958 2863 c18 -2 45 -2 60 0 15 2 0 4 -33 4 -33 0 -45 -2 -27 -4z"/>
</g>
</svg>
